<?xml version="1.0" encoding="UTF-8" standalone="no"?>
<svg width="940px" height="382px" viewBox="0 0 940 382" version="1.1" xmlns="http://www.w3.org/2000/svg" xmlns:xlink="http://www.w3.org/1999/xlink">
  <defs>
      <linearGradient x1="100%" y1="81.2965537%" x2="-0.841886234%" y2="0%" id="linearGradient-1">
          <stop stop-color="#6A00FF" offset="0%"></stop>
          <stop stop-color="#5F15FF" offset="9.59533723%"></stop>
          <stop stop-color="#00DFFF" offset="100%"></stop>
      </linearGradient>
  </defs>
  <g id="Page-1" stroke="none" stroke-width="1" fill="none" fill-rule="evenodd">
      <g id="Group-2">
          <path d="M365.52,163.4 C363.493323,160.839987 360.746684,158.946673 357.28,157.72 C353.813316,156.493327 350.533349,155.88 347.44,155.88 C345.626658,155.88 343.76001,156.093331 341.84,156.52 C339.91999,156.946669 338.106675,157.613329 336.4,158.52 C334.693325,159.426671 333.306672,160.626659 332.24,162.12 C331.173328,163.613341 330.64,165.426656 330.64,167.56 C330.64,170.97335 331.919987,173.586658 334.48,175.4 C337.040013,177.213342 340.266647,178.759994 344.16,180.04 C348.053353,181.320006 352.239978,182.599994 356.72,183.88 C361.200022,185.160006 365.386647,186.973322 369.28,189.32 C373.173353,191.666678 376.399987,194.813314 378.96,198.76 C381.520013,202.706686 382.8,207.986634 382.8,214.6 C382.8,220.893365 381.626678,226.386643 379.28,231.08 C376.933322,235.773357 373.76002,239.666651 369.76,242.76 C365.75998,245.853349 361.120026,248.146659 355.84,249.64 C350.559974,251.133341 344.986696,251.88 339.12,251.88 C331.759963,251.88 324.933365,250.760011 318.64,248.52 C312.346635,246.279989 306.480027,242.653358 301.04,237.64 L318.8,218.12 C321.360013,221.53335 324.586647,224.173324 328.48,226.04 C332.373353,227.906676 336.399979,228.84 340.56,228.84 C342.586677,228.84 344.63999,228.600002 346.72,228.12 C348.80001,227.639998 350.666658,226.920005 352.32,225.96 C353.973342,224.999995 355.306662,223.773341 356.32,222.28 C357.333338,220.786659 357.84,219.026677 357.84,217 C357.84,213.58665 356.533346,210.893343 353.92,208.92 C351.306654,206.946657 348.026686,205.266674 344.08,203.88 C340.133314,202.493326 335.86669,201.106674 331.28,199.72 C326.69331,198.333326 322.426686,196.466678 318.48,194.12 C314.533314,191.773322 311.253346,188.680019 308.64,184.84 C306.026654,180.999981 304.72,175.933365 304.72,169.64 C304.72,163.55997 305.919988,158.22669 308.32,153.64 C310.720012,149.05331 313.91998,145.213349 317.92,142.12 C321.92002,139.026651 326.533307,136.706674 331.76,135.16 C336.986693,133.613326 342.373306,132.84 347.92,132.84 C354.320032,132.84 360.506637,133.746658 366.48,135.56 C372.453363,137.373342 377.839976,140.413312 382.64,144.68 L365.52,163.4 Z M421.28,157.8 L388.96,157.8 L388.96,135.72 L478.56,135.72 L478.56,157.8 L446.24,157.8 L446.24,249 L421.28,249 L421.28,157.8 Z M483.12,192.36 C483.12,183.293288 484.639985,175.080037 487.68,167.72 C490.720015,160.359963 494.959973,154.093359 500.4,148.92 C505.840027,143.746641 512.293296,139.773347 519.76,137 C527.226704,134.226653 535.386622,132.84 544.24,132.84 C553.093378,132.84 561.253296,134.226653 568.72,137 C576.186704,139.773347 582.639973,143.746641 588.08,148.92 C593.520027,154.093359 597.759985,160.359963 600.8,167.72 C603.840015,175.080037 605.36,183.293288 605.36,192.36 C605.36,201.426712 603.840015,209.639963 600.8,217 C597.759985,224.360037 593.520027,230.626641 588.08,235.8 C582.639973,240.973359 576.186704,244.946653 568.72,247.72 C561.253296,250.493347 553.093378,251.88 544.24,251.88 C535.386622,251.88 527.226704,250.493347 519.76,247.72 C512.293296,244.946653 505.840027,240.973359 500.4,235.8 C494.959973,230.626641 490.720015,224.360037 487.68,217 C484.639985,209.639963 483.12,201.426712 483.12,192.36 Z M509.04,192.36 C509.04,197.69336 509.866658,202.573311 511.52,207 C513.173342,211.426689 515.546651,215.26665 518.64,218.52 C521.733349,221.77335 525.439978,224.306658 529.76,226.12 C534.080022,227.933342 538.90664,228.84 544.24,228.84 C549.57336,228.84 554.399978,227.933342 558.72,226.12 C563.040022,224.306658 566.746651,221.77335 569.84,218.52 C572.933349,215.26665 575.306658,211.426689 576.96,207 C578.613342,202.573311 579.44,197.69336 579.44,192.36 C579.44,187.133307 578.613342,182.280022 576.96,177.8 C575.306658,173.319978 572.933349,169.45335 569.84,166.2 C566.746651,162.94665 563.040022,160.413342 558.72,158.6 C554.399978,156.786658 549.57336,155.88 544.24,155.88 C538.90664,155.88 534.080022,156.786658 529.76,158.6 C525.439978,160.413342 521.733349,162.94665 518.64,166.2 C515.546651,169.45335 513.173342,173.319978 511.52,177.8 C509.866658,182.280022 509.04,187.133307 509.04,192.36 Z M620.32,135.72 L664.16,135.72 C669.920029,135.72 675.386641,136.279994 680.56,137.4 C685.733359,138.520006 690.266647,140.386654 694.16,143 C698.053353,145.613346 701.146655,149.133311 703.44,153.56 C705.733345,157.986689 706.88,163.506634 706.88,170.12 C706.88,178.12004 704.800021,184.919972 700.64,190.52 C696.479979,196.120028 690.40004,199.666659 682.4,201.16 L711.2,249 L681.28,249 L657.6,203.72 L645.28,203.72 L645.28,249 L620.32,249 L620.32,135.72 Z M645.28,182.6 L660,182.6 C662.240011,182.6 664.613321,182.520001 667.12,182.36 C669.626679,182.199999 671.893323,181.720004 673.92,180.92 C675.946677,180.119996 677.62666,178.866675 678.96,177.16 C680.29334,175.453325 680.96,173.053349 680.96,169.96 C680.96,167.079986 680.373339,164.786675 679.2,163.08 C678.026661,161.373325 676.533342,160.066671 674.72,159.16 C672.906658,158.253329 670.826678,157.640002 668.48,157.32 C666.133322,156.999998 663.840011,156.84 661.6,156.84 L645.28,156.84 L645.28,182.6 Z M721.68,135.72 L746.64,135.72 L746.64,249 L721.68,249 L721.68,135.72 Z M768.32,135.72 L845.28,135.72 L845.28,158.76 L793.28,158.76 L793.28,179.88 L842.4,179.88 L842.4,202.92 L793.28,202.92 L793.28,225.96 L848.16,225.96 L848.16,249 L768.32,249 L768.32,135.72 Z M922.16,163.4 C920.133323,160.839987 917.386684,158.946673 913.92,157.72 C910.453316,156.493327 907.173349,155.88 904.08,155.88 C902.266658,155.88 900.40001,156.093331 898.48,156.52 C896.55999,156.946669 894.746675,157.613329 893.04,158.52 C891.333325,159.426671 889.946672,160.626659 888.88,162.12 C887.813328,163.613341 887.28,165.426656 887.28,167.56 C887.28,170.97335 888.559987,173.586658 891.12,175.4 C893.680013,177.213342 896.906647,178.759994 900.8,180.04 C904.693353,181.320006 908.879978,182.599994 913.36,183.88 C917.840022,185.160006 922.026647,186.973322 925.92,189.32 C929.813353,191.666678 933.039987,194.813314 935.6,198.76 C938.160013,202.706686 939.44,207.986634 939.44,214.6 C939.44,220.893365 938.266678,226.386643 935.92,231.08 C933.573322,235.773357 930.40002,239.666651 926.4,242.76 C922.39998,245.853349 917.760026,248.146659 912.48,249.64 C907.199974,251.133341 901.626696,251.88 895.76,251.88 C888.399963,251.88 881.573365,250.760011 875.28,248.52 C868.986635,246.279989 863.120027,242.653358 857.68,237.64 L875.44,218.12 C878.000013,221.53335 881.226647,224.173324 885.12,226.04 C889.013353,227.906676 893.039979,228.84 897.2,228.84 C899.226677,228.84 901.27999,228.600002 903.36,228.12 C905.44001,227.639998 907.306658,226.920005 908.96,225.96 C910.613342,224.999995 911.946662,223.773341 912.96,222.28 C913.973338,220.786659 914.48,219.026677 914.48,217 C914.48,213.58665 913.173346,210.893343 910.56,208.92 C907.946654,206.946657 904.666686,205.266674 900.72,203.88 C896.773314,202.493326 892.50669,201.106674 887.92,199.72 C883.33331,198.333326 879.066686,196.466678 875.12,194.12 C871.173314,191.773322 867.893346,188.680019 865.28,184.84 C862.666654,180.999981 861.36,175.933365 861.36,169.64 C861.36,163.55997 862.559988,158.22669 864.96,153.64 C867.360012,149.05331 870.55998,145.213349 874.56,142.12 C878.56002,139.026651 883.173307,136.706674 888.4,135.16 C893.626693,133.613326 899.013306,132.84 904.56,132.84 C910.960032,132.84 917.146637,133.746658 923.12,135.56 C929.093363,137.373342 934.479976,140.413312 939.28,144.68 L922.16,163.4 Z" id="STORIES" fill="#EB416D"></path>
          <path d="M242.56,268.72 L267.52,268.72 L267.52,382 L242.56,382 L242.56,268.72 Z M288.24,268.72 L322.16,268.72 L370.32,347.44 L370.64,268.72 L395.6,268.72 L395.6,382 L362.96,382 L313.52,301.36 L313.2,382 L288.24,382 L288.24,268.72 Z M450.8,268.72 L479.28,268.72 L507.28,342.96 L507.6,342.96 L536.08,268.72 L562.8,268.72 L516.08,382 L496.08,382 L450.8,268.72 Z M572.64,268.72 L616.48,268.72 C622.240029,268.72 627.706641,269.279994 632.88,270.4 C638.053359,271.520006 642.586647,273.386654 646.48,276 C650.373353,278.613346 653.466655,282.133311 655.76,286.56 C658.053345,290.986689 659.2,296.506634 659.2,303.12 C659.2,311.12004 657.120021,317.919972 652.96,323.52 C648.799979,329.120028 642.72004,332.666659 634.72,334.16 L663.52,382 L633.6,382 L609.92,336.72 L597.6,336.72 L597.6,382 L572.64,382 L572.64,268.72 Z M597.6,315.6 L612.32,315.6 C614.560011,315.6 616.933321,315.520001 619.44,315.36 C621.946679,315.199999 624.213323,314.720004 626.24,313.92 C628.266677,313.119996 629.94666,311.866675 631.28,310.16 C632.61334,308.453325 633.28,306.053349 633.28,302.96 C633.28,300.079986 632.693339,297.786675 631.52,296.08 C630.346661,294.373325 628.853342,293.066671 627.04,292.16 C625.226658,291.253329 623.146678,290.640002 620.8,290.32 C618.453322,289.999998 616.160011,289.84 613.92,289.84 L597.6,289.84 L597.6,315.6 Z M0.68,0.72 L27.88,0.72 L45.96,73.36 L46.28,73.36 L69.96,0.72 L93.16,0.72 L116.68,75.28 L117,75.28 L136.04,0.72 L161.32,0.72 L128.2,114 L105.96,114 L81,35.6 L80.68,35.6 L55.72,114 L34.28,114 L0.68,0.72 Z M171.48,0.72 L248.44,0.72 L248.44,23.76 L196.44,23.76 L196.44,44.88 L245.56,44.88 L245.56,67.92 L196.44,67.92 L196.44,90.96 L251.32,90.96 L251.32,114 L171.48,114 L171.48,0.72 Z M336.6,22.8 L304.28,22.8 L304.28,0.72 L393.88,0.72 L393.88,22.8 L361.56,22.8 L361.56,114 L336.6,114 L336.6,22.8 Z M405.48,0.72 L482.44,0.72 L482.44,23.76 L430.44,23.76 L430.44,44.88 L479.56,44.88 L479.56,67.92 L430.44,67.92 L430.44,90.96 L485.32,90.96 L485.32,114 L405.48,114 L405.48,0.72 Z M504.28,0.72 L529.24,0.72 L529.24,90.96 L575.48,90.96 L575.48,114 L504.28,114 L504.28,0.72 Z M588.2,0.72 L613.16,0.72 L613.16,90.96 L659.4,90.96 L659.4,114 L588.2,114 L588.2,0.72 Z" id="Combined-Shape" fill="url(#linearGradient-1)"></path>
      </g>
  </g>
</svg>
